<svg width="26" height="26" viewBox="0 0 26 26" fill="none" xmlns="http://www.w3.org/2000/svg">
<path d="M13 0C5.80078 0 0 5.80078 0 13C0 20.1992 5.80078 26 13 26C20.1992 26 26 20.1992 26 13C26 12.157 25.9319 11.3154 25.7682 10.4949C25.6153 9.72816 24.6893 9.51744 24.1311 10.0649C23.8563 10.3345 23.749 10.7286 23.8213 11.1067C23.9366 11.7104 24 12.3279 24 13C24 19.1016 19.1016 24 13 24C6.89844 24 2 19.1016 2 13C2 6.89844 6.89844 2 13 2C15.6308 2 18.0274 2.91924 19.8576 4.42579C20.2817 4.7748 20.9086 4.77895 21.2969 4.39062C21.6852 4.0023 21.6876 3.3693 21.2695 3.01327C19.0442 1.11856 16.1434 0 13 0ZM25 5C24.603 4.60305 23.9595 4.60305 23.5625 5L13 15.5625L9.4375 12C9.04055 11.603 8.39695 11.603 8 12C7.60305 12.397 7.60305 13.0405 8 13.4375L12.2812 17.7188L13 18.4062L13.7188 17.7188L25 6.4375C25.397 6.04054 25.397 5.39695 25 5Z" fill="#B0B0A2"/>
</svg>
