<svg width="26" height="26" viewBox="0 0 26 26" fill="none" xmlns="http://www.w3.org/2000/svg">
<path d="M13 0C20.168 0 26 5.83203 26 13C26 20.168 20.168 26 13 26C5.83203 26 1.90735e-06 20.168 1.90735e-06 13C1.90735e-06 5.83203 5.83203 0 13 0ZM13 2C6.91406 2 2 6.91406 2 13C2 19.0859 6.91406 24 13 24C19.0859 24 24 19.0859 24 13C24 6.91406 19.0859 2 13 2ZM10.3963 8.47874C10.7859 8.08914 11.4164 8.08568 11.8103 8.47097C12.2103 8.86229 12.2138 9.50492 11.8181 9.90061L9.71875 12H19C19.5523 12 20 12.4477 20 13C20 13.5523 19.5523 14 19 14H9.71875L11.8181 16.0994C12.2138 16.4951 12.2103 17.1377 11.8103 17.529C11.4164 17.9143 10.7859 17.9109 10.3963 17.5213L5.875 13L10.3963 8.47874Z" fill="#F97125"/>
</svg>
