<svg width="28" height="28" viewBox="0 0 28 28" fill="none" xmlns="http://www.w3.org/2000/svg">
<path d="M0 3.05176e-05V10.1818H2.54545V12.7273H5.09091V10.1818H10.1818V3.05176e-05H0ZM10.1818 10.1818V12.7273H12.7273V15.2728H7.63636V17.8182H0V28H10.1818V17.8182H17.8182V15.2728H15.2727V12.7273H20.3636V10.1818H22.9091V12.7273H25.4545V10.1818H28V3.05176e-05H17.8182V10.1818H10.1818ZM25.4545 12.7273V15.2728H28V12.7273H25.4545ZM25.4545 15.2728H22.9091V17.8182H25.4545V15.2728ZM25.4545 17.8182V20.3637H28V17.8182H25.4545ZM25.4545 20.3637H22.9091V17.8182H20.3636V20.3637H14V28H16.5455V22.9091H21.6364V25.4546H24.1818V22.9091H25.4545V20.3637ZM21.6364 25.4546H19.0909V28H21.6364V25.4546ZM22.9091 15.2728V12.7273H20.3636V15.2728H22.9091ZM7.63636 15.2728V12.7273H5.09091V15.2728H7.63636ZM2.54545 12.7273H0V15.2728H2.54545V12.7273ZM12.7273 3.05176e-05V5.09094H11.4545V7.63639H12.7273V8.90912H15.2727V5.09094H16.5455V2.54549H15.2727V3.05176e-05H12.7273ZM2.54545 2.54549H7.63636V7.63639H2.54545V2.54549ZM20.3636 2.54549H25.4545V7.63639H20.3636V2.54549ZM3.81818 3.81821V6.36367H6.36364V3.81821H3.81818ZM21.6364 3.81821V6.36367H24.1818V3.81821H21.6364ZM2.54545 20.3637H7.63636V25.4546H2.54545V20.3637ZM3.81818 21.6364V24.1818H6.36364V21.6364H3.81818ZM25.4545 25.4546V28H28V25.4546H25.4545Z" fill="#979791"/>
</svg>
