<svg width="19" height="29" viewBox="0 0 19 29" fill="none" xmlns="http://www.w3.org/2000/svg">
<path d="M9.49999 0.25C4.27683 0.25 -3.05176e-05 4.52687 -3.05176e-05 9.75002H4.74998C4.74998 7.0967 6.84666 5.00001 9.49999 5.00001C12.1533 5.00001 14.25 7.0967 14.25 9.75002C14.25 11.5684 13.0811 13.1826 11.3555 13.7578L10.3906 14.0547C8.45165 14.6949 7.12499 16.5503 7.12499 18.5821V21.625H11.875V18.5821L12.8398 18.2852C16.4951 17.0699 19 13.6001 19 9.75002C19 4.52687 14.7231 0.25 9.49999 0.25ZM7.12499 24.0001V28.7501H11.875V24.0001H7.12499Z" fill="white"/>
</svg>
