<svg width="26" height="26" viewBox="0 0 26 26" fill="none" xmlns="http://www.w3.org/2000/svg">
<path d="M13 0C5.83203 0 0 5.83203 0 13C0 20.168 5.83203 26 13 26C20.168 26 26 20.168 26 13C26 5.83203 20.168 0 13 0ZM13 2C19.0859 2 24 6.91406 24 13C24 19.0859 19.0859 24 13 24C6.91406 24 2 19.0859 2 13C2 6.91406 6.91406 2 13 2ZM15.6037 8.47874C15.2141 8.08914 14.5836 8.08568 14.1897 8.47097C13.7897 8.86229 13.7862 9.50492 14.1819 9.90061L16.2812 12H7C6.44771 12 6 12.4477 6 13C6 13.5523 6.44772 14 7 14H16.2812L14.1819 16.0994C13.7862 16.4951 13.7897 17.1377 14.1897 17.529C14.5836 17.9143 15.2141 17.9109 15.6037 17.5213L20.125 13L15.6037 8.47874Z" fill="#71B725"/>
</svg>
