<svg width="38" height="32" viewBox="0 0 38 32" fill="none" xmlns="http://www.w3.org/2000/svg">
<path d="M19 15.6501C15.4086 15.6501 12.497 12.1467 12.497 7.82511C12.497 3.50344 13.4531 0 19 0C24.5471 0 25.503 3.50344 25.503 7.82511C25.5029 12.1467 22.5914 15.6501 19 15.6501Z" fill="url(#paint0_linear)"/>
<path d="M6.73138 27.2821C6.85168 19.7536 7.84419 17.6085 15.4388 16.2505C15.4388 16.2505 16.508 17.6 18.9998 17.6C21.4916 17.6 22.5606 16.2505 22.5606 16.2505C30.0724 17.5935 31.1254 19.707 31.2638 27.0375C31.2751 27.636 31.2803 27.6675 31.2823 27.5979C31.2819 27.7282 31.2813 27.9689 31.2813 28.3889C31.2813 28.3889 29.4732 32 18.9997 32C8.52623 32 6.71788 28.3889 6.71788 28.3889C6.71788 28.1192 6.71768 27.9314 6.71749 27.8039C6.71954 27.8469 6.72375 27.7636 6.73138 27.2821Z" fill="url(#paint1_linear)"/>
<path d="M9.97536 14.253C7.0584 14.253 4.69379 11.4076 4.69379 7.89765C4.69379 4.38762 5.47018 1.54222 9.97536 1.54222C10.7332 1.54222 11.3852 1.623 11.9462 1.77378C10.9056 3.67421 10.763 5.98249 10.763 7.82502C10.763 9.91123 11.3338 11.903 12.3851 13.5522C11.6625 13.9992 10.8438 14.253 9.97536 14.253Z" fill="url(#paint2_linear)"/>
<path d="M0.0112584 23.7002C0.109139 17.5858 0.915091 15.8435 7.08336 14.7405C7.08336 14.7405 7.95167 15.8367 9.97546 15.8367C10.0591 15.8367 10.1403 15.8342 10.2202 15.8306C8.9343 16.4049 7.76452 17.2047 6.90307 18.3749C5.41381 20.398 5.07142 23.1157 5.00075 27.1082C0.850883 26.2958 0.000394297 24.5993 0.000394297 24.5993C0.000394297 24.3782 0.000391525 24.2266 0 24.1229C0.00166398 24.1594 0.00509185 24.094 0.0112584 23.7002Z" fill="url(#paint3_linear)"/>
<path d="M28.0247 14.253C27.1562 14.253 26.3377 13.9992 25.6148 13.5523C26.666 11.9031 27.2369 9.91133 27.2369 7.82511C27.2369 5.98248 27.0943 3.6742 26.0539 1.77388C26.6148 1.62309 27.2667 1.54231 28.0247 1.54231C32.5299 1.54231 33.3061 4.38771 33.3061 7.89774C33.3061 11.4076 30.9415 14.253 28.0247 14.253Z" fill="url(#paint4_linear)"/>
<path d="M27.78 15.8305C27.8597 15.8341 27.9409 15.8366 28.0247 15.8366C30.0485 15.8366 30.9168 14.7405 30.9168 14.7405C37.0849 15.8434 37.8911 17.5856 37.9887 23.7001C37.9951 24.094 37.9983 24.1593 38 24.1227C37.9998 24.2264 37.9996 24.378 37.9996 24.5991C37.9996 24.5991 37.149 26.2956 32.9994 27.108C32.9285 23.1156 32.5863 20.3979 31.0968 18.3747C30.2355 17.2047 29.0659 16.4049 27.78 15.8305Z" fill="url(#paint5_linear)"/>
<defs>
<linearGradient id="paint0_linear" x1="33.0047" y1="4.50704" x2="8.88693" y2="30.2829" gradientUnits="userSpaceOnUse">
<stop stop-color="#C0E91C"/>
<stop offset="1" stop-color="#73CC2C"/>
</linearGradient>
<linearGradient id="paint1_linear" x1="33.0047" y1="4.50704" x2="8.88693" y2="30.2829" gradientUnits="userSpaceOnUse">
<stop stop-color="#C0E91C"/>
<stop offset="1" stop-color="#73CC2C"/>
</linearGradient>
<linearGradient id="paint2_linear" x1="33.0047" y1="4.50704" x2="8.88693" y2="30.2829" gradientUnits="userSpaceOnUse">
<stop stop-color="#C0E91C"/>
<stop offset="1" stop-color="#73CC2C"/>
</linearGradient>
<linearGradient id="paint3_linear" x1="33.0047" y1="4.50704" x2="8.88693" y2="30.2829" gradientUnits="userSpaceOnUse">
<stop stop-color="#C0E91C"/>
<stop offset="1" stop-color="#73CC2C"/>
</linearGradient>
<linearGradient id="paint4_linear" x1="33.0047" y1="4.50704" x2="8.88693" y2="30.2829" gradientUnits="userSpaceOnUse">
<stop stop-color="#C0E91C"/>
<stop offset="1" stop-color="#73CC2C"/>
</linearGradient>
<linearGradient id="paint5_linear" x1="33.0047" y1="4.50704" x2="8.88693" y2="30.2829" gradientUnits="userSpaceOnUse">
<stop stop-color="#C0E91C"/>
<stop offset="1" stop-color="#73CC2C"/>
</linearGradient>
</defs>
</svg>
