<svg width="27" height="30" viewBox="0 0 27 30" fill="none" xmlns="http://www.w3.org/2000/svg">
<path d="M10.6943 0C10.0347 0 9.5 0.5347 9.5 1.19429C9.5 1.85387 10.0347 2.38857 10.6943 2.38857H15.4307C16.0903 2.38857 16.625 1.85387 16.625 1.19429C16.625 0.5347 16.0903 0 15.4307 0H10.6943ZM13.0625 3.58286C5.86328 3.58286 0 9.47964 0 16.72C0 23.9604 5.86328 29.8571 13.0625 29.8571C20.2617 29.8571 26.125 23.9604 26.125 16.72C26.125 13.2351 24.7751 10.0441 22.5625 7.68821L23.7549 6.48904C24.2243 6.01688 24.2243 5.25419 23.7549 4.78203C23.2816 4.30605 22.5114 4.30605 22.0381 4.78203L20.7441 6.08339C18.5918 4.50656 15.9246 3.58286 13.0625 3.58286ZM13.0625 5.97143C18.9768 5.97143 23.75 10.7719 23.75 16.72C23.75 22.6681 18.9768 27.4686 13.0625 27.4686C7.14819 27.4686 2.375 22.6681 2.375 16.72C2.375 10.7719 7.14819 5.97143 13.0625 5.97143ZM13.0625 8.36C12.4067 8.36 11.875 8.89166 11.875 9.5475V14.6673C11.1653 15.0825 10.6875 15.8383 10.6875 16.72C10.6875 17.6017 11.1653 18.3575 11.875 18.7727V19.1154C11.875 19.7712 12.4067 20.3029 13.0625 20.3029C13.7183 20.3029 14.25 19.7712 14.25 19.1154V18.7727C14.9597 18.3575 15.4375 17.6017 15.4375 16.72C15.4375 15.8383 14.9597 15.0825 14.25 14.6673V9.5475C14.25 8.89166 13.7183 8.36 13.0625 8.36Z" fill="#E4AE23"/>
</svg>
